<svg width="25" height="24" viewBox="0 0 25 24" fill="none" xmlns="http://www.w3.org/2000/svg">
<g clip-path="url(#clip0_488_774)">
<path d="M10.28 11.16L8.86 12.58C8.18 11.89 7.52 11 7.07 9.64L9.01 9.15C9.33 10.04 9.78 10.65 10.28 11.16ZM11.5 6L7.5 2L3.5 6H6.52C6.54 6.81 6.6 7.54 6.71 8.17L8.65 7.68C8.58 7.2 8.53 6.63 8.52 6H11.5ZM21.5 6L17.5 2L13.5 6H16.49C16.39 9.68 15.21 10.75 13.95 11.88C13.45 12.32 12.94 12.8 12.5 13.43C12.16 12.94 11.77 12.55 11.37 12.19L9.96 13.6C10.89 14.45 11.5 15.14 11.5 17V22H13.5V17C13.5 14.98 14.21 14.34 15.29 13.37C16.67 12.13 18.37 10.59 18.49 6H21.5Z" fill="#EAEAEA"/>
</g>
<defs>
<clipPath id="clip0_488_774">
<rect width="24" height="24" fill="white" transform="translate(0.5)"/>
</clipPath>
</defs>
</svg>
