<svg width="180" height="160" viewBox="0 0 180 160" fill="none" xmlns="http://www.w3.org/2000/svg">
<g clipPath="url(#clip0_1587_20006)">
<path d="M90 159.137C133.941 159.137 169.563 123.515 169.563 79.574C169.563 35.6327 133.941 0.0112305 90 0.0112305C46.0587 0.0112305 10.4373 35.6327 10.4373 79.574C10.4373 123.515 46.0587 159.137 90 159.137Z" fill="white"/>
<path opacity="0.4" d="M90 159.137C133.941 159.137 169.563 123.515 169.563 79.574C169.563 35.6327 133.941 0.0112305 90 0.0112305C46.0587 0.0112305 10.4373 35.6327 10.4373 79.574C10.4373 123.515 46.0587 159.137 90 159.137Z" fill="#FAFAFA"/>
<path d="M38.2918 106.598L0.24231 106.482L0.398864 54.7927L26.7092 54.8725L38.4127 66.6472L38.2918 106.598Z" fill="white"/>
<path opacity="0.3" d="M26.7092 54.8723L26.6736 66.6115L38.4127 66.6471L26.7092 54.8723Z" fill="#0A6847"/>
<path d="M38.6522 66.6326C38.6507 66.6114 38.6466 66.5905 38.6398 66.5703C38.6371 66.5626 38.6352 66.555 38.6318 66.5473C38.6205 66.5209 38.6045 66.4969 38.5845 66.4763L26.881 54.7015C26.8604 54.6813 26.8364 54.6648 26.81 54.653C26.8027 54.6499 26.7951 54.6472 26.7875 54.6448C26.7672 54.6377 26.746 54.6335 26.7245 54.6322C26.7194 54.6322 26.7148 54.6291 26.7097 54.6291L0.399625 54.5503C0.335352 54.5503 0.27371 54.5758 0.228262 54.6213C0.182814 54.6667 0.157281 54.7284 0.157281 54.7926L0 106.481C0 106.546 0.0255326 106.607 0.0709809 106.653C0.116429 106.698 0.17807 106.724 0.242344 106.724L38.2903 106.84C38.3546 106.84 38.4163 106.814 38.4617 106.769C38.5072 106.723 38.5327 106.662 38.5327 106.598L38.6539 66.6471C38.6551 66.6425 38.6524 66.6379 38.6522 66.6326ZM26.9486 55.4584L32.3529 60.8934L37.8284 66.4024L26.9167 66.3692L26.9486 55.4584ZM0.484688 106.241L0.639788 55.0357L26.4652 55.114L26.4305 66.6108C26.4305 66.6751 26.456 66.7367 26.5015 66.7821C26.5469 66.8276 26.6086 66.8531 26.6729 66.8531L38.1697 66.888L38.0502 106.354L0.484688 106.241Z" fill="#262626"/>
<path d="M115.861 104.529L63.9741 104.372L64.1876 33.8848L100.066 33.9936L116.026 50.0503L115.861 104.529Z" fill="white"/>
<path opacity="0.3" d="M100.066 33.9934L100.017 50.0017L116.026 50.0501L100.066 33.9934Z" fill="#0A6847"/>
<path d="M116.265 50.0357C116.264 50.0146 116.26 49.9937 116.253 49.9736C116.25 49.9656 116.248 49.9581 116.245 49.9494C116.234 49.9231 116.218 49.8991 116.198 49.8784L100.238 33.8217C100.217 33.8014 100.193 33.785 100.167 33.7732C100.16 33.7698 100.152 33.7679 100.144 33.7652C100.124 33.7582 100.103 33.7538 100.081 33.7523C100.076 33.7523 100.072 33.7494 100.067 33.7494L64.1884 33.6406C64.1241 33.6406 64.0625 33.6662 64.017 33.7116C63.9716 33.7571 63.946 33.8187 63.946 33.883L63.7325 104.37C63.7325 104.434 63.7581 104.496 63.8035 104.542C63.849 104.587 63.9106 104.613 63.9749 104.613L115.861 104.77C115.925 104.77 115.987 104.744 116.032 104.699C116.078 104.653 116.103 104.592 116.103 104.527L116.268 50.0485C116.268 50.0456 116.265 50.041 116.265 50.0357ZM100.306 34.5792L115.441 49.8062L100.26 49.7601L100.306 34.5792ZM64.2172 104.13L64.4293 34.1277L99.8229 34.2351L99.7744 50.001C99.7744 50.0653 99.8 50.1269 99.8454 50.1724C99.8909 50.2178 99.9525 50.2434 100.017 50.2434L115.783 50.2918L115.619 104.286L64.2172 104.13Z" fill="#262626"/>
<path d="M179.637 106.598L141.587 106.482L141.744 54.7927L168.054 54.8725L179.758 66.6472L179.637 106.598Z" fill="white"/>
<path opacity="0.3" d="M168.054 54.8723L168.019 66.6115L179.758 66.6471L168.054 54.8723Z" fill="#0A6847"/>
<path d="M179.997 66.6326C179.996 66.6114 179.992 66.5904 179.985 66.5703C179.982 66.5625 179.98 66.555 179.977 66.5473C179.965 66.521 179.95 66.4969 179.93 66.4763L168.226 54.7015C168.206 54.6812 168.182 54.6648 168.155 54.653C168.148 54.6496 168.14 54.6475 168.132 54.6448C168.112 54.6377 168.091 54.6335 168.07 54.6322C168.065 54.6322 168.06 54.629 168.055 54.629L141.745 54.5493C141.68 54.5493 141.619 54.5748 141.573 54.6203C141.528 54.6657 141.502 54.7274 141.502 54.7917L141.346 106.481C141.346 106.545 141.371 106.607 141.417 106.653C141.462 106.698 141.524 106.724 141.588 106.724L179.637 106.839C179.702 106.839 179.763 106.813 179.809 106.768C179.854 106.722 179.88 106.661 179.88 106.597L180.001 66.6462C180 66.6425 179.997 66.6379 179.997 66.6326ZM168.295 55.4584L173.697 60.8934L179.173 66.4024L168.262 66.3692L168.295 55.4584ZM141.831 106.241L141.986 55.0357L167.811 55.114L167.776 66.6108C167.776 66.675 167.802 66.7367 167.847 66.7821C167.893 66.8276 167.955 66.8531 168.019 66.8531L179.516 66.888L179.396 106.354L141.831 106.241Z" fill="#262626"/>
<path d="M77.0401 74.9613C79.0461 74.9613 80.6723 73.3351 80.6723 71.329C80.6723 69.323 79.0461 67.6968 77.0401 67.6968C75.0341 67.6968 73.4078 69.323 73.4078 71.329C73.4078 73.3351 75.0341 74.9613 77.0401 74.9613Z" fill="#292A2E"/>
<path d="M101.946 74.9613C103.952 74.9613 105.578 73.3351 105.578 71.329C105.578 69.323 103.952 67.6968 101.946 67.6968C99.9402 67.6968 98.314 69.323 98.314 71.329C98.314 73.3351 99.9402 74.9613 101.946 74.9613Z" fill="#292A2E"/>
<path d="M94.3629 81.3741H84.6236C84.5593 81.3741 84.4977 81.3486 84.4522 81.3031C84.4068 81.2577 84.3812 81.196 84.3812 81.1317C84.3812 81.0675 84.4068 81.0058 84.4522 80.9604C84.4977 80.9149 84.5593 80.8894 84.6236 80.8894H94.3629C94.4272 80.8894 94.4888 80.9149 94.5343 80.9604C94.5797 81.0058 94.6052 81.0675 94.6052 81.1317C94.6052 81.196 94.5797 81.2577 94.5343 81.3031C94.4888 81.3486 94.4272 81.3741 94.3629 81.3741Z" fill="#262626"/>
<path d="M73.2932 81.7191C75.0827 81.7191 76.5334 80.9556 76.5334 80.0137C76.5334 79.0719 75.0827 78.3083 73.2932 78.3083C71.5038 78.3083 70.0531 79.0719 70.0531 80.0137C70.0531 80.9556 71.5038 81.7191 73.2932 81.7191Z" fill="white"/>
<path d="M105.693 81.7191C107.483 81.7191 108.933 80.9556 108.933 80.0137C108.933 79.0719 107.483 78.3083 105.693 78.3083C103.904 78.3083 102.453 79.0719 102.453 80.0137C102.453 80.9556 103.904 81.7191 105.693 81.7191Z" fill="white"/>
<g opacity="0.4">
<path d="M73.2932 81.7191C75.0827 81.7191 76.5334 80.9556 76.5334 80.0137C76.5334 79.0719 75.0827 78.3083 73.2932 78.3083C71.5038 78.3083 70.0531 79.0719 70.0531 80.0137C70.0531 80.9556 71.5038 81.7191 73.2932 81.7191Z" fill="#0A6847"/>
<path d="M105.693 81.7191C107.483 81.7191 108.933 80.9556 108.933 80.0137C108.933 79.0719 107.483 78.3083 105.693 78.3083C103.904 78.3083 102.453 79.0719 102.453 80.0137C102.453 80.9556 103.904 81.7191 105.693 81.7191Z" fill="#0A6847"/>
</g>
<path d="M116.104 50.6278C109.919 43.527 101.167 39.1737 91.7727 38.5255C82.3784 37.8772 73.1113 40.9872 66.0099 47.1713C54.1457 57.5041 50.4999 74.6829 57.1457 88.9514C58.4801 91.8104 60.1911 94.4781 62.2332 96.8833L62.6694 97.4002L30.1488 131.913C29.5541 132.553 29.2367 133.403 29.2659 134.276C29.2951 135.149 29.6684 135.976 30.3045 136.575C30.9406 137.174 31.7878 137.498 32.6614 137.475C33.5351 137.452 34.3642 137.085 34.968 136.453L67.4807 101.946L68.0237 102.352C75.0399 107.615 83.7556 110.095 92.4914 109.314C101.227 108.533 109.365 104.546 115.336 98.1226C121.307 91.6987 124.69 83.2921 124.832 74.5227C124.974 65.7532 121.865 57.2416 116.105 50.6278H116.104ZM118.143 75.9353C117.639 83.2268 114.391 90.0564 109.051 95.0477C103.712 100.039 96.6797 102.821 89.3709 102.833C88.696 102.833 88.0189 102.809 87.3395 102.76C82.5953 102.438 78.0038 100.95 73.9722 98.4286C69.9407 95.907 66.5937 92.4295 64.2281 88.3045C61.8624 84.1795 60.5513 79.5345 60.4108 74.7814C60.2704 70.0283 61.305 65.314 63.423 61.0565C65.5409 56.799 68.6768 53.13 72.5524 50.3747C76.428 47.6195 80.9236 45.8632 85.6406 45.2616C90.3576 44.66 95.1501 45.2317 99.5933 46.9259C104.036 48.6202 107.993 51.3847 111.112 54.9742C113.61 57.8304 115.518 61.1534 116.725 64.7511C117.932 68.3489 118.414 72.1502 118.143 75.9353Z" fill="#0A6847"/>
</g>
<defs>
<clipPath id="clip0_1587_20006">
<rect width="180" height="159.148" fill="white"/>
</clipPath>
</defs>
</svg>
