<svg width="212" height="212" viewBox="0 0 212 212" fill="none" xmlns="http://www.w3.org/2000/svg">
<rect width="212" height="212" rx="100" fill="#D5D5D5"/>
<g clipPath="url(#clip0_1284_3737)">
<path d="M121 126H86V91H108.5V86H86C83.25 86 81 88.25 81 91V126C81 128.75 83.25 131 86 131H121C123.75 131 126 128.75 126 126V103.5H121V126ZM101.525 118.075L96.625 112.175L89.75 121H117.25L108.4 109.225L101.525 118.075ZM126 86V78.5H121V86H113.5C113.525 86.025 113.5 91 113.5 91H121V98.475C121.025 98.5 126 98.475 126 98.475V91H133.5V86H126Z" fill="#3C3C3C"/>
</g>
<defs>
<clipPath id="clip0_1284_3737">
<rect width="60" height="60" fill="white" transform="translate(76 76)"/>
</clipPath>
</defs>
</svg>
